<svg width="18" height="19" viewBox="0 0 18 19" fill="none" xmlns="http://www.w3.org/2000/svg"><g clip-path="url(#a)" fill="#758CA7"><path d="M8.935 9.87h.119c1.093-.018 1.976-.402 2.628-1.137 1.435-1.617 1.197-4.39 1.17-4.655C12.76 2.09 11.82 1.14 11.046.697 10.467.365 9.793.187 9.04.171h-.064c-.414 0-1.226.067-2.005.511-.783.444-1.737 1.394-1.83 3.396-.026.264-.265 3.038 1.17 4.655.649.735 1.532 1.119 2.624 1.137zm-2.8-5.699c0-.011.005-.022.005-.03.123-2.672 2.02-2.96 2.832-2.96h.045c1.007.023 2.718.433 2.833 2.96 0 .011 0 .023.004.03.004.026.264 2.56-.92 3.895-.47.53-1.097.79-1.92.798h-.038c-.82-.008-1.45-.269-1.916-.798-1.181-1.327-.928-3.873-.924-3.895z"/><path d="M16.655 14.47v-.011c0-.03-.004-.06-.004-.093-.022-.739-.07-2.464-1.688-3.016l-.038-.011c-1.68-.429-3.079-1.398-3.094-1.41a.503.503 0 1 0-.577.825c.063.044 1.546 1.077 3.403 1.554.868.31.965 1.238.991 2.087 0 .034 0 .064.004.094.004.335-.019.853-.078 1.151-.604.343-2.971 1.529-6.572 1.529-3.586 0-5.967-1.19-6.575-1.532-.06-.299-.086-.817-.078-1.152 0-.03.003-.06.003-.093.026-.85.123-1.778.992-2.088 1.856-.477 3.34-1.513 3.403-1.554a.503.503 0 1 0-.578-.824c-.015.011-1.405.98-3.093 1.41a.514.514 0 0 0-.038.01c-1.617.556-1.666 2.281-1.688 3.016 0 .033 0 .063-.004.093v.011c-.004.194-.007 1.19.19 1.689a.478.478 0 0 0 .194.235c.112.074 2.792 1.781 7.276 1.781s7.164-1.71 7.276-1.781a.499.499 0 0 0 .194-.235c.186-.496.183-1.491.179-1.685z"/></g><defs><clipPath id="a"><path fill="#fff" transform="translate(0 .171)" d="M0 0h18v18H0z"/></clipPath></defs></svg>