<svg width="30" height="30" viewBox="0 0 30 30" fill="none" xmlns="http://www.w3.org/2000/svg"><path d="M26.749 5.948H20.56V4.622c0-1.426-1.154-2.618-2.58-2.618h-5.922A2.644 2.644 0 0 0 9.44 4.622v1.326H3.25C1.47 5.948 0 7.392 0 9.174v15.557c0 1.783 1.469 3.265 3.251 3.265H26.75c1.782 0 3.251-1.482 3.251-3.265V9.174c0-1.782-1.469-3.226-3.251-3.226zM10.733 4.622a1.35 1.35 0 0 1 1.325-1.325h5.923c.713 0 1.286.612 1.286 1.325v1.326h-8.534V4.622zM3.25 7.242h23.5c1.069 0 1.958.863 1.958 1.932v5.98L20.17 19.1a12.293 12.293 0 0 1-10.337 0l-8.54-3.948V9.174c0-1.07.888-1.933 1.957-1.933zm23.498 19.46H3.25c-1.069 0-1.958-.901-1.958-1.97v-8.154l7.993 3.696a13.592 13.592 0 0 0 11.426 0l7.995-3.697v8.154c0 1.07-.89 1.972-1.958 1.972z" fill="#2D83FF"/><path d="M15 16.449a1.134 1.134 0 0 1-1.133-1.133.647.647 0 0 0-1.293 0 2.43 2.43 0 0 0 1.715 2.32v.532a.647.647 0 0 0 1.293 0v-.497A2.426 2.426 0 0 0 15 12.89a1.133 1.133 0 1 1 1.133-1.133.647.647 0 0 0 1.293 0 2.43 2.43 0 0 0-1.844-2.355v-.609a.646.646 0 1 0-1.293 0v.644A2.426 2.426 0 0 0 15 14.183a1.133 1.133 0 1 1 .017 2.266H15z" fill="#2D83FF"/></svg>