<svg width="30" height="30" viewBox="0 0 30 30" fill="none" xmlns="http://www.w3.org/2000/svg"><g clip-path="url(#a)" fill="#2D83FF"><path d="M18.544 1.036H3.194A3.205 3.205 0 0 0 0 4.247v17.03a.637.637 0 0 0 .176.446l6.84 7.053a.64.64 0 0 0 .458.199h11.07c1.766 0 3.18-1.445 3.18-3.212V4.247c0-1.766-1.414-3.211-3.18-3.211zM6.857 26.746l-4.712-4.82h4.047c.353 0 .665.279.665.632v4.188zm13.585-.983a1.91 1.91 0 0 1-1.891 1.93H8.138v-5.135c0-1.06-.886-1.914-1.946-1.914h-4.91V4.247a1.923 1.923 0 0 1 1.912-1.93h15.35a1.91 1.91 0 0 1 1.898 1.923v21.523z"/><path d="M17.16 9.366H4.972a.64.64 0 0 0 0 1.282H17.16a.64.64 0 0 0 0-1.282zm0 3.845H4.972a.64.64 0 0 0 0 1.282H17.16a.64.64 0 0 0 0-1.282zm0 3.845H4.972a.64.64 0 0 0 0 1.281H17.16a.64.64 0 0 0 0-1.281zM4.972 7.06h5.627a.64.64 0 0 0 0-1.282H4.972a.64.64 0 0 0 0 1.281zm22.163-5.395a2.856 2.856 0 0 0-2.852 2.85l-.013 19.353c0 .103.025.204.072.295l2.224 4.279a.641.641 0 0 0 1.138 0l2.224-4.279a.641.641 0 0 0 .072-.295l-.013-19.353a2.856 2.856 0 0 0-2.852-2.85zm1.573 6.484h-3.146v-.641h3.146v.64zm.001 1.281l.01 13.777h-3.167l.01-13.777h3.147zm-1.574-6.483a1.573 1.573 0 0 1 1.57 1.57l.002 1.71h-3.144l.001-1.71a1.573 1.573 0 0 1 1.571-1.57zm0 23.79l-1.169-2.248h2.338l-1.169 2.248z"/></g><defs><clipPath id="a"><path fill="#fff" d="M0 0h30v30H0z"/></clipPath></defs></svg>