<svg width="23" height="23" viewBox="0 0 23 23" fill="none" xmlns="http://www.w3.org/2000/svg"><g clip-path="url(#a)" fill="#2D83FF"><path d="M20.192 2.748H2.812A2.815 2.815 0 0 0 0 5.561v11.878a2.815 2.815 0 0 0 2.813 2.813h17.375A2.815 2.815 0 0 0 23 17.439V5.565a2.812 2.812 0 0 0-2.808-2.817zm1.528 14.69a1.53 1.53 0 0 1-1.528 1.529H2.812a1.53 1.53 0 0 1-1.527-1.528V5.565a1.53 1.53 0 0 1 1.528-1.527h17.375a1.53 1.53 0 0 1 1.527 1.527V17.44h.005z"/><path d="M14.505 11.352l5.625-5.044a.646.646 0 0 0 .048-.909.646.646 0 0 0-.909-.048l-7.757 6.963-1.513-1.352c-.005-.005-.01-.01-.01-.014a.948.948 0 0 0-.105-.09L3.726 5.347a.642.642 0 0 0-.909.052.642.642 0 0 0 .053.909l5.691 5.087-5.667 5.306a.645.645 0 0 0 .88.943l5.754-5.383 1.56 1.395a.642.642 0 0 0 .857-.005l1.604-1.437 5.72 5.435a.642.642 0 0 0 .885-.933l-5.649-5.364z"/></g><defs><clipPath id="a"><path fill="#fff" d="M0 0h23v23H0z"/></clipPath></defs></svg>