<svg width="18" height="18" viewBox="0 0 18 18" fill="none" xmlns="http://www.w3.org/2000/svg"><path d="M17.946 5.29c-.044-.959-.196-1.613-.419-2.185A4.413 4.413 0 0 0 16.49 1.51 4.413 4.413 0 0 0 14.895.472C14.323.25 13.67.098 12.711.054 11.75.01 11.444 0 9 0S6.25.01 5.29.054C4.33.098 3.676.25 3.104.473A4.41 4.41 0 0 0 1.51 1.51c-.458.45-.813.993-1.039 1.594C.25 3.677.098 4.33.054 5.289.01 6.25 0 6.556 0 9c0 2.445.01 2.752.054 3.712.044.957.196 1.612.419 2.184.226.6.58 1.145 1.038 1.594.45.458.993.812 1.594 1.038.572.223 1.227.375 2.185.419C6.25 17.99 6.556 18 9 18s2.751-.01 3.71-.054c.959-.044 1.613-.196 2.185-.419a4.601 4.601 0 0 0 2.633-2.632c.222-.572.374-1.226.418-2.184C17.99 11.75 18 11.444 18 9s-.01-2.75-.054-3.71zm-1.62 7.347c-.04.877-.187 1.354-.31 1.671a2.98 2.98 0 0 1-1.708 1.708c-.317.123-.794.27-1.671.31-.95.043-1.234.052-3.637.052s-2.688-.009-3.637-.052c-.877-.04-1.354-.187-1.671-.31a2.788 2.788 0 0 1-1.035-.673 2.788 2.788 0 0 1-.673-1.035c-.123-.317-.27-.794-.31-1.671-.043-.95-.052-1.234-.052-3.637s.009-2.688.052-3.637c.04-.877.187-1.354.31-1.67a2.79 2.79 0 0 1 .673-1.036c.29-.299.644-.529 1.035-.673.317-.123.794-.27 1.671-.31.95-.043 1.234-.052 3.637-.052s2.688.009 3.637.052c.877.04 1.354.187 1.67.31.392.144.745.374 1.036.673.299.29.529.644.673 1.035.123.317.27.794.31 1.671.043.95.052 1.234.052 3.637s-.009 2.688-.052 3.637z" fill="url(#a)"/><path d="M9 4.378a4.622 4.622 0 1 0 0 9.244 4.622 4.622 0 0 0 0-9.244zM9 12a3 3 0 1 1 0-6 3 3 0 0 1 0 6z" fill="url(#b)"/><path d="M14.884 4.196a1.08 1.08 0 1 1-2.16 0 1.08 1.08 0 0 1 2.16 0z" fill="url(#c)"/><defs><linearGradient id="a" x1="1.511" y1="16.489" x2="16.489" y2="1.51" gradientUnits="userSpaceOnUse"><stop stop-color="#FFD600"/><stop offset=".5" stop-color="#FF0100"/><stop offset="1" stop-color="#D800B9"/></linearGradient><linearGradient id="b" x1="5.732" y1="12.268" x2="12.268" y2="5.732" gradientUnits="userSpaceOnUse"><stop stop-color="#FF6400"/><stop offset=".5" stop-color="#FF0100"/><stop offset="1" stop-color="#FD0056"/></linearGradient><linearGradient id="c" x1="13.04" y1="4.959" x2="14.568" y2="3.432" gradientUnits="userSpaceOnUse"><stop stop-color="#F30072"/><stop offset="1" stop-color="#E50097"/></linearGradient></defs></svg>