<svg width="36" height="36" viewBox="0 0 36 36" fill="none" xmlns="http://www.w3.org/2000/svg"><g clip-path="url(#a)" fill="#EE3E44"><path d="M19.8 26.4h-3.6a.6.6 0 0 0 0 1.2h3.6a.6.6 0 1 0 0-1.2zM18.6 28.8h-1.2a.6.6 0 1 0 0 1.2h1.2a.6.6 0 1 0 0-1.2zM15 18h-2.4a.6.6 0 1 0 0 1.2h.6a.6.6 0 1 0 1.2 0h.6a.6.6 0 0 0 0-1.2zM23.4 18H21a.6.6 0 1 0 0 1.2h.6a.6.6 0 1 0 1.2 0h.6a.6.6 0 0 0 0-1.2zM17.4 22.8h1.2a.6.6 0 0 0 0-1.2h-1.2a.6.6 0 1 0 0 1.2zM12 16.8h3.6a.6.6 0 0 0 0-1.2H12a.6.6 0 1 0 0 1.2zM20.4 16.8H24a.6.6 0 0 0 0-1.2h-3.6a.6.6 0 0 0 0 1.2z"/><path d="M8.4 23.35v1.19c0 1.124.484 2.193 1.327 2.936l2.224 1.944a16.971 16.971 0 0 1-1.057 4.928c-.153.367-.112.787.11 1.118a1.2 1.2 0 0 0 1.002.534h11.988a1.2 1.2 0 0 0 1.003-.534c.22-.33.262-.75.11-1.117a16.974 16.974 0 0 1-1.058-4.929l2.226-1.946A3.915 3.915 0 0 0 27.6 24.54v-1.19a3.6 3.6 0 0 0 .458-6.991C28.64 15.36 29.4 13.44 29.4 10.2c0-4.304-4.476-5.983-6.323-6.6.201-.213.444-.384.712-.502a1.015 1.015 0 0 0-.03-1.85C15.095-2.466 10.88 3.233 10.188 4.3a6.308 6.308 0 0 0-3.27 3.824c-.945 3.106.445 6.66 1.172 8.197a3.6 3.6 0 0 0 .31 7.03zM23.994 34.8l-11.991.007a17.185 17.185 0 0 0 1.061-4.414l1.194 1.043c.71.621 1.622.963 2.566.964h2.352c.944 0 1.856-.343 2.567-.964l1.193-1.042c.156 1.509.512 2.99 1.058 4.406zm1.49-8.228l-4.53 3.96a2.708 2.708 0 0 1-1.778.668h-2.352a2.708 2.708 0 0 1-1.777-.668l-4.528-3.96a2.712 2.712 0 0 1-.92-2.032V23.4h.6a.6.6 0 0 1 .6.6v.9c.002.378.18.733.48.96l1.2.9a1.2 1.2 0 0 0 1.92-.96.6.6 0 0 1 .6-.6h6a.6.6 0 0 1 .6.6 1.2 1.2 0 0 0 1.92.96l1.2-.9c.302-.227.48-.582.48-.96V24a.6.6 0 0 1 .6-.6h.6v1.14c0 .777-.333 1.518-.916 2.032zM8.065 8.47a5.195 5.195 0 0 1 2.81-3.176.6.6 0 0 0 .255-.243c.145-.256 3.586-6.153 11.794-2.85-.382.228-.716.53-.982.887a1.013 1.013 0 0 0 .497 1.568c1.424.466 5.76 1.884 5.76 5.544a12.632 12.632 0 0 1-.765 4.69 4.9 4.9 0 0 0-1.915-2.798.605.605 0 0 0-.427-.082c-4.483.815-5.604.267-7.64-.726A25.498 25.498 0 0 0 14.1 9.871a3.648 3.648 0 0 0-3.45.337c-1.294.93-1.842 2.745-2.076 4.14-.582-1.628-1.11-3.908-.508-5.878zm.334 9.015V18.6a.6.6 0 1 0 1.2 0v-1.86-.528c0-1.05.32-4 1.75-5.028.71-.454 1.6-.52 2.368-.173 1.1.373 2.173.824 3.21 1.349 2.076 1.013 3.46 1.688 8.122.874a3.803 3.803 0 0 1 1.35 2.975V18.6a.6.6 0 1 0 1.2 0v-1.115A2.395 2.395 0 0 1 27 22.2h-1.2A1.8 1.8 0 0 0 24 24v.9l-1.2.9A1.8 1.8 0 0 0 21 24h-6a1.8 1.8 0 0 0-1.8 1.8l-1.2-.9V24a1.8 1.8 0 0 0-1.8-1.8H9a2.395 2.395 0 0 1-.6-4.715z"/></g><defs><clipPath id="a"><path fill="#fff" d="M0 0h36v36H0z"/></clipPath></defs></svg>