<svg width="34" height="34" viewBox="0 0 34 34" fill="none" xmlns="http://www.w3.org/2000/svg"><g clip-path="url(#a)" fill="#EE3E44"><path d="M32.867 13.6h-2.703a13.428 13.428 0 0 0-1.449-3.508l1.9-1.9a1.128 1.128 0 0 0 .006-1.612l-3.197-3.196a1.118 1.118 0 0 0-.807-.341 1.116 1.116 0 0 0-.804.336l-1.905 1.905A13.418 13.418 0 0 0 20.4 3.836V1.133C20.4.508 19.892.001 19.267 0h-4.534c-.625 0-1.132.508-1.133 1.133v2.703a13.415 13.415 0 0 0-3.507 1.449L8.192 3.384a1.122 1.122 0 0 0-.808-.341h-.001a1.113 1.113 0 0 0-.802.336L3.384 6.575a1.13 1.13 0 0 0-.005 1.612l1.905 1.905A13.426 13.426 0 0 0 3.836 13.6H1.133c-.625 0-1.132.508-1.133 1.133v4.534c0 .625.508 1.132 1.133 1.133h2.703a13.427 13.427 0 0 0 1.448 3.508l-1.9 1.9a1.13 1.13 0 0 0-.005 1.611l3.197 3.197c.211.218.502.342.807.341.303.001.592-.12.804-.336l1.906-1.905a13.415 13.415 0 0 0 3.507 1.448v2.703c0 .625.508 1.132 1.133 1.133h4.534c.625 0 1.132-.508 1.133-1.133v-2.703a13.414 13.414 0 0 0 3.508-1.449l1.9 1.901a1.128 1.128 0 0 0 1.611.005l3.197-3.196a1.128 1.128 0 0 0 .005-1.612l-1.905-1.905a13.428 13.428 0 0 0 1.448-3.508h2.703c.625 0 1.132-.508 1.133-1.133v-4.534c0-.625-.508-1.132-1.133-1.133zm0 5.667h-3.151a.566.566 0 0 0-.553.445 12.313 12.313 0 0 1-1.642 3.977.566.566 0 0 0 .078.704l2.221 2.225-3.205 3.202-2.222-2.221a.566.566 0 0 0-.704-.078 12.294 12.294 0 0 1-3.977 1.641.567.567 0 0 0-.445.554v3.15h-4.534v-3.15a.567.567 0 0 0-.445-.553 12.301 12.301 0 0 1-3.977-1.642.566.566 0 0 0-.704.078l-2.225 2.22-3.202-3.204 2.222-2.222a.566.566 0 0 0 .077-.704 12.309 12.309 0 0 1-1.641-3.977.566.566 0 0 0-.554-.445h-3.15v-4.534h3.15a.567.567 0 0 0 .554-.445c.31-1.412.865-2.758 1.641-3.977a.566.566 0 0 0-.078-.704l-2.22-2.225L7.384 4.18l2.222 2.221c.187.189.48.22.704.078a12.295 12.295 0 0 1 3.977-1.641.567.567 0 0 0 .445-.554v-3.15h4.534v3.15c0 .266.185.497.445.554 1.412.309 2.758.865 3.977 1.641.224.142.517.11.704-.078l2.225-2.22 3.202 3.204-2.222 2.222a.566.566 0 0 0-.077.704 12.31 12.31 0 0 1 1.641 3.976.565.565 0 0 0 .554.446l3.15.002v4.532z"/><path d="M17 6.8C11.367 6.8 6.8 11.367 6.8 17c0 5.633 4.567 10.2 10.2 10.2 5.633 0 10.2-4.567 10.2-10.2-.006-5.63-4.57-10.194-10.2-10.2zm0 19.267A9.067 9.067 0 1 1 26.067 17 9.077 9.077 0 0 1 17 26.067z"/><path d="M21.533 18.7a1.7 1.7 0 0 0 0-3.4h-2.131a2.574 2.574 0 0 0-.702-.702v-3.265a1.7 1.7 0 0 0-3.4 0v3.8a2.524 2.524 0 0 0-.567 1.584 2.553 2.553 0 0 0 2.55 2.55 2.524 2.524 0 0 0 1.583-.567h2.667zm0-2.267a.567.567 0 0 1 0 1.134h-1.856c.1-.273.153-.56.156-.85a2.452 2.452 0 0 0-.028-.284h1.728zM17 10.767c.313 0 .566.254.567.566v2.862a2.043 2.043 0 0 0-1.134.128v-2.99c0-.312.254-.566.567-.566zm-1.133 5.95c0-.366.143-.717.397-.98l.01-.011a1.414 1.414 0 1 1 2 2.002l-.01.007a1.414 1.414 0 0 1-2.397-1.018z"/></g><defs><clipPath id="a"><path fill="#fff" d="M0 0h34v34H0z"/></clipPath></defs></svg>