<svg width="17" height="17" viewBox="0 0 17 17" fill="none" xmlns="http://www.w3.org/2000/svg"><path d="M13.786 9.764c-.357-.37-.788-.569-1.245-.569-.454 0-.888.195-1.26.565l-1.165 1.156c-.096-.051-.192-.099-.284-.146a4.84 4.84 0 0 1-.365-.195c-1.09-.69-2.082-1.589-3.032-2.752-.461-.58-.77-1.068-.995-1.563.302-.275.582-.561.855-.837.103-.102.206-.209.31-.312.773-.77.773-1.768 0-2.539L5.597 1.57a15.327 15.327 0 0 1-.343-.348 17.364 17.364 0 0 0-.692-.683C4.205.187 3.778 0 3.328 0c-.45 0-.884.187-1.253.54l-.007.007L.815 1.805a2.68 2.68 0 0 0-.8 1.707c-.088 1.071.229 2.07.472 2.722.597 1.604 1.489 3.09 2.819 4.682A17.331 17.331 0 0 0 9.08 15.42c.848.4 1.98.873 3.243.954.078.003.159.007.232.007.852 0 1.567-.305 2.127-.91.003-.007.01-.011.015-.018.191-.232.412-.44.644-.665.159-.15.321-.308.48-.473.364-.378.556-.818.556-1.27 0-.454-.195-.891-.568-1.258l-2.023-2.022zm1.32 3.864c-.004 0-.004.004 0 0-.144.154-.291.293-.45.448a9.69 9.69 0 0 0-.711.733c-.372.397-.81.584-1.386.584-.055 0-.114 0-.17-.004-1.094-.07-2.11-.495-2.874-.858a16.36 16.36 0 0 1-5.439-4.242C2.82 8.78 1.98 7.386 1.423 5.889 1.08 4.976.955 4.264 1.01 3.592c.037-.429.203-.785.509-1.09l1.256-1.25c.18-.17.372-.261.56-.261.233 0 .42.14.538.257l.012.01c.224.21.438.426.663.657.114.118.232.235.35.356l1.006 1.002c.39.389.39.749 0 1.138-.107.106-.21.212-.317.315-.31.316-.604.61-.925.895-.007.008-.015.011-.018.019-.317.315-.258.624-.192.833l.011.033c.262.63.63 1.225 1.19 1.934l.004.003c1.017 1.248 2.09 2.22 3.272 2.965.151.095.306.173.454.246.132.066.258.128.364.194.015.008.03.019.045.026a.801.801 0 0 0 .364.092.789.789 0 0 0 .56-.253l1.261-1.255c.125-.125.324-.276.556-.276.229 0 .417.144.531.268l.007.008 2.03 2.021c.38.375.38.76.005 1.149z" fill="#758CA7"/></svg>