<svg width="36" height="36" viewBox="0 0 36 36" fill="none" xmlns="http://www.w3.org/2000/svg"><g clip-path="url(#a)" fill="#1CC262"><path d="M20.352 1.627A2.737 2.737 0 0 0 18.626.082a2.544 2.544 0 0 0-2.913 1.326 12.565 12.565 0 0 0-1.31 5.64v18.76c0 .038.004.075.011.113l1.614 8.363c.136.98.984 1.716 1.97 1.716h.004c.988 0 1.835-.737 1.966-1.685l1.619-8.394a.554.554 0 0 0 .011-.113V7.046a12.558 12.558 0 0 0-1.246-5.42zm.047 24.123l-1.613 8.369A.795.795 0 0 1 18 34.8a.803.803 0 0 1-.789-.713l-1.608-8.338V7.044c-.01-1.76.4-3.525 1.185-5.102.28-.565.928-.86 1.508-.708.429.134.777.448.964.889a11.402 11.402 0 0 1 1.14 4.924V25.75z"/><path d="M15.31 13.3a.599.599 0 0 0-.593-.011L.327 21.083a.6.6 0 0 0-.314.527v3.598a.6.6 0 0 0 .81.561l14.39-5.396a.6.6 0 0 0 .389-.562v-5.995a.6.6 0 0 0-.293-.515zm-.907 6.096l-13.19 4.947v-2.375l13.19-7.145v4.573zm21.27 1.687l-14.39-7.794a.6.6 0 0 0-.885.527v5.995a.6.6 0 0 0 .389.562l14.39 5.396a.592.592 0 0 0 .552-.069.6.6 0 0 0 .258-.492V21.61a.6.6 0 0 0-.314-.527zm-.885 3.26l-13.19-4.947v-4.574l13.19 7.146v2.375z"/><path d="M9.606 13.816c-.991 0-1.798.807-1.798 1.8v1.798h1.199v-1.799a.6.6 0 0 1 1.199 0v.6h1.199v-.6a1.8 1.8 0 0 0-1.799-1.799zM4.21 16.814a1.8 1.8 0 0 0-1.799 1.798v1.799h1.2v-1.799a.6.6 0 0 1 1.198 0h1.2a1.8 1.8 0 0 0-1.8-1.798zm22.185-2.998c-.992 0-1.8.807-1.8 1.8v.599h1.2v-.6a.6.6 0 0 1 1.2 0v1.799h1.198v-1.799a1.8 1.8 0 0 0-1.798-1.799zm5.395 2.998a1.8 1.8 0 0 0-1.798 1.798h1.199a.6.6 0 0 1 1.199 0v1.799h1.2v-1.799a1.8 1.8 0 0 0-1.8-1.798zM16.701 33.61l-6.496 1.083v-1.35l5.705-3.424-.617-1.028-5.996 3.597a.598.598 0 0 0-.29.514V35.4a.6.6 0 0 0 .697.592l7.195-1.199-.198-1.183zm10.001-1.122l-5.995-3.597-.617 1.028 5.705 3.423v1.35l-6.497-1.083-.197 1.183 7.195 1.2a.597.597 0 0 0 .697-.591v-2.399a.6.6 0 0 0-.29-.514z"/></g><defs><clipPath id="a"><path fill="#fff" d="M0 0h36v36H0z"/></clipPath></defs></svg>