<svg width="32" height="32" viewBox="0 0 32 32" fill="none" xmlns="http://www.w3.org/2000/svg"><path d="M21.389.208A.677.677 0 0 0 20.906 0H6.604a3.385 3.385 0 0 0-3.377 3.37v25.26A3.385 3.385 0 0 0 6.604 32h18.792a3.385 3.385 0 0 0 3.377-3.37V8.077a.684.684 0 0 0-.198-.47L21.39.208zm.19 2.13l4.917 5.057H22.25a.664.664 0 0 1-.671-.658V2.338zm3.817 28.318H6.604A2.04 2.04 0 0 1 4.57 28.63V3.369a2.04 2.04 0 0 1 2.033-2.024h13.631v5.387a2.01 2.01 0 0 0 2.013 2.007h5.18v19.892a2.04 2.04 0 0 1-2.032 2.024z" fill="#2D83FF"/><path d="M23.53 25.68H8.056a.672.672 0 1 0 0 1.345h15.476a.672.672 0 1 0 0-1.344zM8.055 23.395h9.265a.672.672 0 1 0 0-1.345H8.055a.672.672 0 1 0 0 1.345zM8.537 19.092h9.313c.371 0 .705-.312.705-.683v-.85a4.667 4.667 0 0 0-4.684-4.652h-1.356a4.639 4.639 0 0 0-4.65 4.628v.874a.681.681 0 0 0 .672.683zm.673-1.534a3.31 3.31 0 0 1 3.305-3.306h1.356c1.823 0 3.339 1.483 3.339 3.306v.19h-8v-.19zM13.202 12.625a3.349 3.349 0 1 0 0-6.697 3.349 3.349 0 0 0 0 6.697zm0-5.352a2.004 2.004 0 1 1 0 4.008 2.004 2.004 0 0 1 0-4.008z" fill="#2D83FF"/></svg>