<svg width="37" height="37" viewBox="0 0 37 37" fill="none" xmlns="http://www.w3.org/2000/svg"><g clip-path="url(#a)"><path d="M35.266 27.172A1.736 1.736 0 0 0 37 25.437V13.876a1.736 1.736 0 0 0-1.734-1.734h-15.32a1.713 1.713 0 0 0-.579.106V8.383a7.805 7.805 0 0 0-15.61 0v9.523A6.364 6.364 0 0 0 0 23.703v5.781a2.86 2.86 0 0 0 .593 1.735H.578a.578.578 0 0 0-.578.578v4.047a.578.578 0 0 0 .578.578h35.844a.578.578 0 0 0 .578-.578v-4.047a.578.578 0 0 0-.578-.578h-4.48a2.308 2.308 0 0 0-2.024-2.284v-1.763h5.348zm-15.32-13.875h15.32a.579.579 0 0 1 .578.578v11.563a.579.579 0 0 1-.578.578h-5.348V21.39a2.313 2.313 0 0 0-4.625 0v4.625h-5.348a.578.578 0 0 1-.578-.578V13.874a.578.578 0 0 1 .578-.578zm6.503 15.61V21.39a1.156 1.156 0 0 1 2.313 0v7.515h-2.313zm-3.18 2.312h-.737c.383-.498.59-1.107.593-1.735v-2.312h2.168v1.763a2.308 2.308 0 0 0-2.023 2.284zM4.915 8.383a6.648 6.648 0 0 1 13.297 0v9.137a6.256 6.256 0 0 0-1.445-.176h-2.024v-.445a5.485 5.485 0 0 0 2.313-4.47V8.095a.578.578 0 0 0-.275-.492l-2.808-1.734a.579.579 0 0 0-.638.02l-.196.14a11.164 11.164 0 0 1-6.49 2.066.578.578 0 0 0-.578.578v3.758a5.485 5.485 0 0 0 2.313 4.47v.444H6.359c-.486.001-.971.06-1.445.172V8.383zm6.649 8.383a4.34 4.34 0 0 1-4.336-4.336V9.237a12.302 12.302 0 0 0 6.463-2.185l2.208 1.364v4.014a4.34 4.34 0 0 1-4.335 4.336zm-2.024.765a5.43 5.43 0 0 0 4.047 0v.68a2.023 2.023 0 1 1-4.047 0v-.68zM1.156 29.484v-5.78A5.209 5.209 0 0 1 6.36 18.5h2.038a3.178 3.178 0 0 0 6.33 0h2.039c.49.002.976.073 1.445.212v6.726a1.736 1.736 0 0 0 1.734 1.734h2.024v2.312a1.736 1.736 0 0 1-1.735 1.735h-4.047v-2.89h2.891a.578.578 0 1 0 0-1.157H15.61a4.627 4.627 0 0 0-4.046 2.39 4.628 4.628 0 0 0-4.047-2.39h-3.47a.578.578 0 1 0 0 1.156h2.891v2.89H2.891a1.737 1.737 0 0 1-1.735-1.734zm6.938-1.103a3.475 3.475 0 0 1 2.842 2.838H8.094V28.38zm6.937 2.838H12.19a3.475 3.475 0 0 1 2.842-2.838v2.838zm20.813 1.156v2.89H1.156v-2.89h34.688zm-5.059-1.156h-6.36a1.158 1.158 0 0 1 1.157-1.157h4.047a1.158 1.158 0 0 1 1.156 1.157z" fill="#2D83FF"/></g><defs><clipPath id="a"><path fill="#fff" d="M0 0h37v37H0z"/></clipPath></defs></svg>