<svg width="31" height="31" viewBox="0 0 31 31" fill="none" xmlns="http://www.w3.org/2000/svg"><g clip-path="url(#a)"><path d="M28.07 7.159h-4.745v-3.41c0-1.182-.96-2.144-2.142-2.144H9.817a2.146 2.146 0 0 0-2.142 2.144v3.41H2.93A2.933 2.933 0 0 0 0 10.089v16.374a2.933 2.933 0 0 0 2.928 2.932h25.144A2.933 2.933 0 0 0 31 26.463V10.089a2.933 2.933 0 0 0-2.93-2.93zM8.886 3.749c0-.514.418-.933.93-.933h11.367c.513 0 .93.419.93.933v3.41h-1.57v-2.16a.605.605 0 0 0-.606-.606h-8.874a.605.605 0 0 0-.606.605v2.16h-1.57V3.75zm2.783 3.41V5.604h7.662v1.555H11.67zM1.21 10.089a1.72 1.72 0 0 1 1.719-1.72h25.14a1.72 1.72 0 0 1 1.72 1.72v5.615a3.392 3.392 0 0 1-3.389 3.388h-.65v-2.568a.605.605 0 0 0-.606-.605h-3.686a.605.605 0 0 0-.606.605v2.568H10.147v-2.568a.605.605 0 0 0-.606-.605H5.855a.605.605 0 0 0-.605.605v2.568h-.651a3.392 3.392 0 0 1-3.388-3.388v-5.615zm23.328 7.04v4.53h-2.475v-4.53h2.475zm-15.603 0v4.53H6.46v-4.53h2.475zm20.853 9.334a1.72 1.72 0 0 1-1.717 1.721H2.928a1.721 1.721 0 0 1-1.717-1.721V18.81a4.588 4.588 0 0 0 3.388 1.492h.65v1.962c0 .335.272.606.606.606h3.686a.605.605 0 0 0 .606-.606v-1.962h10.706v1.962c0 .335.271.606.605.606h3.687a.605.605 0 0 0 .605-.606v-1.962h.65a4.59 4.59 0 0 0 3.389-1.492v7.652z" fill="#FF8632"/></g><defs><clipPath id="a"><path fill="#fff" d="M0 0h31v31H0z"/></clipPath></defs></svg>