<svg width="30" height="30" viewBox="0 0 30 30" fill="none" xmlns="http://www.w3.org/2000/svg"><path d="M16.503 13.764H7.128a.655.655 0 1 0 0 1.309h9.375a.655.655 0 0 0 0-1.31zM16.503 16.382H7.128a.655.655 0 1 0 0 1.31h9.375a.655.655 0 0 0 0-1.31zM7.128 12.454h4.103a.655.655 0 0 0 0-1.31H7.128a.655.655 0 1 0 0 1.31z" fill="#2D83FF"/><path d="M29.974 15.033c-.428-6.38-5.837-11.27-12.228-11.056a11.731 11.731 0 0 0-5.915-1.605C5.308 2.372 0 7.694 0 14.217c0 2.664.905 5.249 2.566 7.332L.851 25.545a.657.657 0 0 0 .715.906l6.304-1.117c1.252.45 2.573.677 3.903.672h.043c.15 0 .298.01.446.004a11.734 11.734 0 0 0 5.907 1.598 11.42 11.42 0 0 0 4.687-.966l6.363.687a.655.655 0 0 0 .653-.948l-1.974-3.87a11.74 11.74 0 0 0 2.076-7.478zm-18.16 9.664h-.015a10.174 10.174 0 0 1-3.635-.65.651.651 0 0 0-.345-.027l-5.287.93 1.395-3.247a.653.653 0 0 0-.104-.683 10.427 10.427 0 0 1-2.514-6.789C1.31 8.431 6.03 3.711 11.83 3.71a10.494 10.494 0 1 1-.016 20.987zm14.794-2.637a.655.655 0 0 0-.059.69l1.607 3.148-5.336-.575a.657.657 0 0 0-.343.055c-1.13.518-2.345.824-3.585.903-1.442.099-2.889-.1-4.25-.588a11.82 11.82 0 0 0 5.04-20.294 10.493 10.493 0 0 1 6.927 16.66z" fill="#2D83FF"/></svg>