<svg width="36" height="36" viewBox="0 0 36 36" fill="none" xmlns="http://www.w3.org/2000/svg"><path d="M18.403 31.567a.55.55 0 0 1-.071-.005c-5.919-.74-11.384-7.424-11.978-10.622a13.095 13.095 0 0 1 .187-5.579 3.638 3.638 0 0 1 1.782-2.22 10.834 10.834 0 0 1 4.19-1.212 5.424 5.424 0 0 0 2.559-.798 5.86 5.86 0 0 1 3.331-.862 5.86 5.86 0 0 1 3.331.862c.773.476 1.653.75 2.56.798 1.464.116 2.89.529 4.19 1.213a3.639 3.639 0 0 1 1.78 2.22 13.09 13.09 0 0 1 .188 5.578c-.594 3.197-6.06 9.882-11.978 10.622a.563.563 0 0 1-.07.005zm0-20.146a4.77 4.77 0 0 0-2.771.717 6.549 6.549 0 0 1-3.024.939 9.684 9.684 0 0 0-3.744 1.081 2.481 2.481 0 0 0-1.214 1.515 11.869 11.869 0 0 0-.164 5.057c.47 2.528 5.51 8.953 10.916 9.68 5.407-.727 10.446-7.152 10.915-9.68.31-1.678.254-3.403-.164-5.057a2.485 2.485 0 0 0-1.213-1.515 9.685 9.685 0 0 0-3.744-1.081 6.55 6.55 0 0 1-3.024-.939 4.77 4.77 0 0 0-2.769-.717z" fill="#EE3E44"/><path d="M6.522 21.252C2.465 17.38.955 12.594 1.839 10.204c.31-.84.927-1.344 1.692-1.385 2.686-.144 4.458 4.874 4.652 5.447l-1.091.37C6.474 12.816 5 9.968 3.644 9.968l-.051.001c-.11.006-.448.024-.674.634-.619 1.675.35 5.952 4.398 9.816l-.795.832zM30.282 21.252l-.795-.833c4.047-3.862 5.017-8.14 4.398-9.814-.226-.61-.563-.629-.674-.634-1.367-.068-2.873 2.823-3.499 4.666l-1.091-.37c.194-.572 1.968-5.587 4.652-5.447.765.041 1.382.547 1.692 1.385.884 2.39-.626 7.175-4.683 11.046zM18.403 19.754c-3.977 0-5.646-1.157-5.715-1.207a.577.577 0 1 1 .668-.938c.01.007 1.488.993 5.047.993 3.559 0 5.033-.983 5.047-.992a.577.577 0 1 1 .668.937c-.07.05-1.739 1.207-5.715 1.207zM18.403 22.779c-3.977 0-5.646-1.157-5.715-1.206a.576.576 0 1 1 .668-.939c.01.008 1.488.992 5.047.992 3.559 0 5.033-.982 5.047-.992a.576.576 0 0 1 .668.939c-.07.049-1.739 1.206-5.715 1.206zM18.403 25.805c-3.977 0-5.646-1.157-5.715-1.206a.573.573 0 0 1-.135-.804.576.576 0 0 1 .803-.135c.01.006 1.488.993 5.047.993 3.56 0 5.033-.983 5.047-.993a.576.576 0 0 1 .669.939c-.071.048-1.74 1.206-5.716 1.206z" fill="#EE3E44"/></svg>